<mxfile host="app.diagrams.net" modified="2022-03-07T08:26:25.253Z" agent="5.0 (Macintosh; Intel Mac OS X 10_15_7) AppleWebKit/537.36 (KHTML, like Gecko) Chrome/98.0.4758.109 Safari/537.36" etag="vqu5PCFSMSczZrGa2ID0" version="16.6.6" type="github">
  <diagram id="yJAMEYIp0DnkHHVKkVWT" name="Page-1">
    <mxGraphModel dx="1426" dy="751" grid="1" gridSize="10" guides="1" tooltips="1" connect="1" arrows="1" fold="1" page="1" pageScale="1" pageWidth="827" pageHeight="1169" math="0" shadow="0">
      <root>
        <mxCell id="0" />
        <mxCell id="1" parent="0" />
        <mxCell id="jTd3YfKQHWX464xsL9Nb-7" style="edgeStyle=orthogonalEdgeStyle;rounded=0;orthogonalLoop=1;jettySize=auto;html=1;" edge="1" parent="1" source="jTd3YfKQHWX464xsL9Nb-1" target="jTd3YfKQHWX464xsL9Nb-3">
          <mxGeometry relative="1" as="geometry" />
        </mxCell>
        <mxCell id="jTd3YfKQHWX464xsL9Nb-9" style="edgeStyle=orthogonalEdgeStyle;rounded=0;orthogonalLoop=1;jettySize=auto;html=1;exitX=1;exitY=0.21;exitDx=0;exitDy=0;exitPerimeter=0;" edge="1" parent="1" source="jTd3YfKQHWX464xsL9Nb-1" target="jTd3YfKQHWX464xsL9Nb-6">
          <mxGeometry relative="1" as="geometry" />
        </mxCell>
        <mxCell id="jTd3YfKQHWX464xsL9Nb-1" value="Gunicorn Web Application" style="outlineConnect=0;dashed=0;verticalLabelPosition=bottom;verticalAlign=top;align=center;html=1;shape=mxgraph.aws3.ec2;fillColor=#F58534;gradientColor=none;" vertex="1" parent="1">
          <mxGeometry x="310" y="260" width="76.5" height="93" as="geometry" />
        </mxCell>
        <mxCell id="jTd3YfKQHWX464xsL9Nb-2" value="AWS ELB" style="verticalLabelPosition=bottom;html=1;verticalAlign=top;strokeWidth=1;align=center;outlineConnect=0;dashed=0;outlineConnect=0;shape=mxgraph.aws3d.elasticLoadBalancing;fillColor=#ECECEC;strokeColor=#5E5E5E;aspect=fixed;" vertex="1" parent="1">
          <mxGeometry x="50" y="260" width="92" height="88.17" as="geometry" />
        </mxCell>
        <mxCell id="jTd3YfKQHWX464xsL9Nb-3" value="" style="verticalLabelPosition=bottom;html=1;verticalAlign=top;strokeWidth=1;align=center;outlineConnect=0;dashed=0;outlineConnect=0;shape=mxgraph.aws3d.rdsMaster;fillColor=#ECECEC;strokeColor=#5E5E5E;aspect=fixed;" vertex="1" parent="1">
          <mxGeometry x="800" y="348.17" width="123" height="133" as="geometry" />
        </mxCell>
        <mxCell id="jTd3YfKQHWX464xsL9Nb-6" value="" style="verticalLabelPosition=bottom;html=1;verticalAlign=top;strokeWidth=1;align=center;outlineConnect=0;dashed=0;outlineConnect=0;shape=mxgraph.aws3d.rdsSlave;fillColor=#ECECEC;strokeColor=#5E5E5E;aspect=fixed;" vertex="1" parent="1">
          <mxGeometry x="760" y="50" width="123" height="133" as="geometry" />
        </mxCell>
      </root>
    </mxGraphModel>
  </diagram>
</mxfile>
